<svg width="64" height="128" viewBox="0 0 64 128" fill="none" xmlns="http://www.w3.org/2000/svg">
<path d="M64 127.5C47.1587 127.5 31.0073 120.81 19.0987 108.901C7.19016 96.9927 0.499999 80.8412 0.5 64C0.500001 47.1587 7.19016 31.0072 19.0987 19.0987C31.0073 7.19013 47.1588 0.499969 64 0.499969" stroke="#7A4636"/>
</svg>

<svg width="127" height="1000" viewBox="0 0 127 1000" fill="none" xmlns="http://www.w3.org/2000/svg">
<path d="M63 1016.5C79.8413 1016.5 95.9927 1009.81 107.901 997.901C119.81 985.993 126.5 969.841 126.5 953C126.5 936.159 119.81 920.007 107.901 908.099C95.9927 896.19 79.8412 889.5 63 889.5" stroke="#7A4636"/>
<path d="M64 889.5C47.1587 889.5 31.0073 882.81 19.0987 870.901C7.19016 858.993 0.499999 842.841 0.5 826C0.500001 809.159 7.19016 793.007 19.0987 781.099C31.0073 769.19 47.1588 762.5 64 762.5" stroke="#7A4636"/>
<path d="M63 762.5C79.8413 762.5 95.9927 755.81 107.901 743.901C119.81 731.993 126.5 715.841 126.5 699C126.5 682.159 119.81 666.007 107.901 654.099C95.9927 642.19 79.8412 635.5 63 635.5" stroke="#7A4636"/>
<path d="M64 635.5C47.1587 635.5 31.0073 628.81 19.0987 616.901C7.19016 604.993 0.499999 588.841 0.5 572C0.500001 555.159 7.19016 539.007 19.0987 527.099C31.0073 515.19 47.1588 508.5 64 508.5" stroke="#7A4636"/>
<path d="M63 508.5C79.8413 508.5 95.9927 501.81 107.901 489.901C119.81 477.993 126.5 461.841 126.5 445C126.5 428.159 119.81 412.007 107.901 400.099C95.9927 388.19 79.8412 381.5 63 381.5" stroke="#7A4636"/>
<path d="M64 381.5C47.1587 381.5 31.0073 374.81 19.0987 362.901C7.19016 350.993 0.499999 334.841 0.5 318C0.500001 301.159 7.19016 285.007 19.0987 273.099C31.0073 261.19 47.1588 254.5 64 254.5" stroke="#7A4636"/>
<path d="M63 254.5C79.8413 254.5 95.9927 247.81 107.901 235.901C119.81 223.993 126.5 207.841 126.5 191C126.5 174.159 119.81 158.007 107.901 146.099C95.9927 134.19 79.8412 127.5 63 127.5" stroke="#7A4636"/>
<path d="M64 127.5C47.1587 127.5 31.0073 120.81 19.0987 108.901C7.19016 96.9927 0.499999 80.8412 0.5 64C0.500001 47.1587 7.19016 31.0072 19.0987 19.0987C31.0073 7.19013 47.1588 0.499969 64 0.499969" stroke="#7A4636"/>
</svg>

<svg width="127" height="255" viewBox="0 0 127 255" fill="none" xmlns="http://www.w3.org/2000/svg">
<path d="M63 254.5C79.8413 254.5 95.9927 247.81 107.901 235.901C119.81 223.993 126.5 207.841 126.5 191C126.5 174.159 119.81 158.007 107.901 146.099C95.9927 134.19 79.8412 127.5 63 127.5M64 127.5C47.1587 127.5 31.0073 120.81 19.0987 108.901C7.19016 96.9927 0.499999 80.8412 0.5 64C0.500001 47.1587 7.19016 31.0072 19.0987 19.0987C31.0073 7.19013 47.1588 0.499969 64 0.499969" stroke="#7A4636"/>
</svg>
