<svg version="1.1" id="Layer_1" xmlns="http://www.w3.org/2000/svg" xmlns:xlink="http://www.w3.org/1999/xlink" x="0px" y="0px"
	 width="100%" viewBox="0 0 512 512" enable-background="new 0 0 512 512" xml:space="preserve">
<path fill="#000000" opacity="1.000000" stroke="none" 
	d="
M1.000000,495.463196 
	C10.144698,487.452881 17.995029,478.571411 26.411276,470.276123 
	C40.888794,456.006653 55.192482,441.560883 69.654915,427.275970 
	C71.775841,425.181061 72.388794,423.775909 70.234009,421.082977 
	C59.149136,407.229980 50.754898,391.831360 45.140400,374.995941 
	C40.879692,362.219940 38.651806,349.079773 37.520187,335.607880 
	C34.376648,298.184113 43.448978,263.266937 57.841671,229.240952 
	C65.175407,211.903122 74.041039,195.361694 84.386658,179.738068 
	C95.450584,163.029678 107.337982,146.835693 121.495834,132.482361 
	C124.634628,129.300232 127.319931,125.669952 130.467514,122.497498 
	C136.742783,116.172615 142.224319,116.519669 149.404327,120.094284 
	C151.934036,121.353722 153.164505,130.807175 151.169327,134.294357 
	C149.944351,136.435379 148.353638,138.427780 146.651566,140.226089 
	C122.228203,166.030411 101.340645,194.343002 85.526260,226.254364 
	C74.442322,248.620316 66.060959,272.023865 62.721619,296.743469 
	C57.818516,333.038910 61.664768,367.935059 83.757721,398.854614 
	C85.585640,401.412842 87.585609,403.848145 89.378822,406.175934 
	C91.938477,406.160736 92.897926,404.381256 94.134033,403.150482 
	C108.302055,389.042938 122.359673,374.823700 136.616821,360.807281 
	C139.495239,357.977448 140.064957,355.166748 139.255112,351.398743 
	C134.400330,328.810120 129.668030,306.194916 124.980370,283.570892 
	C124.446877,280.996124 123.764107,278.370911 124.377136,275.661560 
	C125.535728,270.541138 129.743301,266.681580 134.766724,266.202850 
	C139.486923,265.752960 144.984100,268.849579 146.392365,273.890503 
	C148.756561,282.353119 150.434601,291.010773 152.302994,299.607758 
	C154.907394,311.591278 157.421280,323.594482 159.951126,335.482147 
	C162.297699,335.699463 163.048187,334.198761 164.036880,333.214722 
	C180.451813,316.877350 196.804871,300.477600 213.263351,284.184326 
	C215.715820,281.756470 216.649445,279.579376 215.847610,275.893280 
	C210.796295,252.671432 206.074936,229.377502 201.296753,206.096695 
	C199.521469,197.446960 202.952774,191.442932 210.353149,189.963989 
	C216.873978,188.660828 222.611084,193.776276 224.283417,201.921158 
	C228.224884,221.117493 232.339874,240.278214 236.389145,259.474457 
	C238.648544,259.599487 239.427414,257.880493 240.512985,256.800751 
	C256.814545,240.586517 273.031830,224.287323 289.374512,208.114777 
	C292.132355,205.385651 292.947205,202.842865 292.076721,198.836044 
	C286.995117,175.445847 282.204407,151.990799 277.523010,128.516266 
	C276.029785,121.028847 279.738312,115.027061 285.929016,113.817947 
	C292.981567,112.440498 298.621887,116.487839 300.305939,124.317879 
	C304.493042,143.786163 308.609253,163.269684 312.793274,182.931915 
	C315.382172,182.930969 316.366852,180.927094 317.668915,179.633896 
	C335.637054,161.787933 353.550934,143.887344 371.473389,125.995384 
	C374.216400,123.257042 377.040497,120.719955 381.224701,120.507607 
	C385.808502,120.274971 389.306458,122.102371 391.767578,125.920135 
	C394.271851,129.804916 394.372406,133.865677 391.823547,137.661346 
	C390.076233,140.263306 387.913574,142.632339 385.693329,144.863403 
	C368.894867,161.743851 352.025482,178.553650 335.214966,195.422119 
	C333.715820,196.926392 331.876373,198.186050 330.811829,200.783340 
	C337.718750,203.279510 344.927368,204.058914 351.916443,205.633163 
	C364.403961,208.445862 376.965149,210.929901 389.469452,213.670242 
	C397.797699,215.495407 401.670410,220.927673 400.156647,228.301697 
	C398.851166,234.661362 392.246735,238.077972 384.354858,236.427094 
	C361.078583,231.557983 337.800262,226.698196 314.540039,221.753357 
	C311.749756,221.160187 309.403870,221.142029 307.211884,223.346680 
	C290.068878,240.588608 272.867950,257.772980 255.702606,274.992737 
	C255.263046,275.433685 255.025528,276.076019 254.518951,276.913452 
	C259.006897,279.380859 263.896912,279.551239 268.503387,280.561035 
	C283.122559,283.765869 297.798279,286.712097 312.446381,289.785950 
	C319.157135,291.194214 323.534668,295.197784 324.209900,300.443420 
	C324.843628,305.366577 321.940796,310.303802 317.046692,312.457306 
	C313.839447,313.868530 310.564117,313.408997 307.252960,312.712555 
	C283.821838,307.784149 260.373474,302.937103 236.955872,297.945618 
	C234.799561,297.485992 233.143066,297.439453 231.509247,299.082458 
	C213.894455,316.796173 196.247482,334.477905 178.623642,352.182617 
	C178.420807,352.386414 178.407394,352.778748 178.145554,353.561188 
	C183.681046,355.779480 189.618973,356.391418 195.357925,357.658417 
	C209.644592,360.812347 224.007706,363.624420 238.272842,366.869476 
	C244.727493,368.337799 248.709991,374.049011 247.918243,379.611023 
	C247.095459,385.391083 241.402405,390.505371 235.612747,389.897858 
	C230.342728,389.344879 225.150894,387.992126 219.944565,386.896912 
	C200.582047,382.823822 181.228546,378.708069 161.869568,374.618164 
	C159.195984,374.053345 156.702835,373.887177 154.469971,376.140991 
	C139.347275,391.405334 124.152847,406.598602 108.998062,421.831238 
	C108.547752,422.283844 108.278885,422.916992 107.689674,423.832153 
	C114.445511,430.746552 122.638382,435.477600 131.080063,439.703369 
	C156.017334,452.186584 182.549210,454.730804 209.911026,451.981262 
	C228.430115,450.120361 246.245468,445.495209 263.572571,438.837402 
	C268.573273,436.915924 273.490631,436.149933 278.449463,439.006012 
	C280.987183,440.467621 283.649200,440.065155 286.118744,438.787994 
	C289.667938,436.952423 293.113495,434.917511 296.640198,433.036926 
	C298.280579,432.162170 299.198273,430.745331 299.301208,429.053650 
	C299.662598,423.115143 303.583374,419.975189 308.153931,417.227448 
	C321.447052,409.235779 334.219147,400.510559 346.404144,390.881134 
	C378.176208,365.772522 405.182831,336.321533 427.667053,302.672485 
	C446.833435,273.988800 461.990723,243.336441 472.796753,210.573349 
	C476.389160,199.681351 479.655457,188.681137 481.789368,177.372986 
	C482.567200,173.250916 484.213348,169.516983 487.605133,166.623550 
	C491.958954,162.909424 493.873932,157.600693 495.472809,152.362946 
	C496.416412,149.271729 495.340149,146.094986 492.961243,143.646454 
	C489.296906,139.874847 488.459808,135.290543 488.867004,130.257919 
	C491.408722,98.844475 489.132446,67.766701 482.431976,36.981117 
	C481.740753,33.805126 480.280670,32.215416 477.045105,31.532898 
	C442.743866,24.297260 408.230469,22.407162 373.311523,26.085222 
	C329.546722,30.695021 288.323090,43.474236 249.316940,63.549152 
	C225.999710,75.549606 204.074554,89.807816 183.775284,106.445564 
	C177.823288,111.323959 171.995682,114.740929 164.409454,110.128159 
	C164.034714,109.900307 163.441147,109.962532 162.958527,110.001648 
	C162.478363,110.040550 162.009628,110.220741 161.237747,110.413414 
	C161.400528,108.555862 161.544571,106.901833 160.732422,105.164398 
	C158.503662,100.396553 159.610626,96.091408 163.455795,92.560516 
	C176.948685,80.170517 191.976456,69.801270 207.324829,59.934383 
	C221.997635,50.501789 237.350327,42.203510 253.224350,34.954224 
	C278.460724,23.429377 304.501312,14.331237 331.712280,8.528695 
	C348.105255,5.033009 364.606476,2.714875 381.637878,1.170331 
	C398.687561,1.000000 415.375122,1.000000 432.903809,1.153624 
	C441.285187,2.085080 448.835907,2.774003 456.363312,3.660595 
	C469.180298,5.170196 481.771240,7.933705 494.312744,10.893209 
	C498.834503,11.960241 502.019165,14.833593 503.128265,19.463348 
	C505.592621,29.750374 507.630249,40.123714 509.409943,50.556633 
	C511.075867,60.322422 511.835266,70.182312 513.000000,80.000000 
	C513.000000,97.354225 513.000000,114.708458 512.863037,132.874985 
	C512.022766,140.659378 508.651703,144.343170 501.605194,146.982971 
	C496.400391,148.932831 499.854919,156.917831 497.614136,161.795624 
	C496.820770,163.522690 497.958557,164.764725 499.598785,165.806259 
	C505.721466,169.694031 507.543152,174.129379 505.972595,180.917313 
	C498.730194,212.218353 488.203735,242.364899 473.864746,271.129730 
	C463.777771,291.364807 452.120514,310.701935 438.811493,328.966278 
	C427.085876,345.057709 414.342560,360.343964 400.417450,374.629333 
	C387.533997,387.846130 373.946808,400.256134 359.346130,411.545471 
	C345.954407,421.899963 332.107391,431.597382 317.245453,439.744720 
	C311.899475,442.675385 306.653839,442.011505 302.046051,437.930389 
	C301.130585,437.119598 300.486694,436.128754 299.137970,436.817078 
	C294.252777,439.310120 289.360565,441.791168 284.520386,444.369507 
	C283.119263,445.115814 283.356720,446.659882 283.361511,447.972260 
	C283.385101,454.454742 280.237305,458.548615 274.132355,460.578186 
	C270.995209,461.621094 267.962189,462.974915 264.832275,464.042053 
	C240.681320,472.275940 215.937881,477.610901 190.338989,477.189026 
	C178.640839,476.996216 166.880249,475.981842 155.359009,473.317230 
	C138.586288,469.438110 122.760544,463.419312 108.024086,454.345245 
	C101.691566,450.445953 96.220764,445.350037 89.439888,441.305145 
	C65.483704,465.346832 41.741852,489.173401 18.000000,513.000000 
	C13.975455,513.000000 9.950912,513.000000 5.476103,512.824768 
	C5.025838,512.649536 5.064404,512.300293 4.841905,512.041504 
	C3.412937,510.521820 2.206469,509.260895 1.000000,508.000000 
	C1.000000,503.975464 1.000000,499.950897 1.000000,495.463196 
z"/>
<path fill="#000000" opacity="1.000000" stroke="none" 
	d="
M1.000001,512.500000 
	C1.514574,512.223267 2.029146,512.446533 2.771859,512.834900 
	C2.333333,513.000000 1.666667,513.000000 1.000001,512.500000 
z"/>
<path fill="#000000" opacity="1.000000" stroke="none" 
	d="
M4.250000,513.000000 
	C4.198501,512.790405 4.421409,512.611084 4.866565,512.381226 
	C5.064404,512.300293 5.025838,512.649536 5.012919,512.824768 
	C5.000000,513.000000 4.500000,513.000000 4.250000,513.000000 
z"/>
</svg>